PathFileType	4	(X/Y/Z)	C:\Users\Hakeem\Desktop\Python Projects\BasketballMotionAnalysis\Sports2D_Results\free_throw_Sports2D\free_throw_Sports2D_m_person00.trc
DataRate	CameraRate	NumFrames	NumMarkers	Units	OrigDataRate	OrigDataStartFrame	OrigNumFrames
30.0	30.0	11	22	m	30.0	25	90
Frame#	Time	Hip			RHip			RKnee			RAnkle			RBigToe			RSmallToe			RHeel			LHip			LKnee			LAnkle			LBigToe			LSmallToe			LHeel			Neck			Head			Nose			RShoulder			RElbow			RWrist			LShoulder			LElbow			LWrist			
		X1	Y1	Z1	X2	Y2	Z2	X3	Y3	Z3	X4	Y4	Z4	X5	Y5	Z5	X6	Y6	Z6	X7	Y7	Z7	X8	Y8	Z8	X9	Y9	Z9	X10	Y10	Z10	X11	Y11	Z11	X12	Y12	Z12	X13	Y13	Z13	X14	Y14	Z14	X15	Y15	Z15	X16	Y16	Z16	X17	Y17	Z17	X18	Y18	Z18	X19	Y19	Z19	X20	Y20	Z20	X21	Y21	Z21	X22	Y22	Z22
25	0.8426966292134831	2.616438140512221	0.757639274047984	0.0301	2.5953279902500057	0.7791510437972988	0.0301	2.587972394859378	0.4022356748296596	0.129	2.2767240513954405	0.1295172126956232	0.023	2.410233403578355	0.00387813342107804	0.2179	2.3579920582779286	0.016315463178371313	0.1804	2.206936013617917	0.11252679208957345	-0.0119	2.66382587281403	0.7448564706619053	0.0301	2.667880602954788	0.38647016163539955	0.129	2.4105683721308444	0.1304051020619186	0.023	2.5399758049037264	0.0021274223240563164	0.2179	2.526982677948381	0.030893290005523624	0.1804	2.3432099762801575	0.10749157041593208	-0.0119	3.0107510848999732	1.1600042399173942	0.0008	3.161114674352852	1.3632349487465878	0.0655	3.18687920746154	1.2381804569203183	0.1076	2.969342262789891	1.096425988971075	-0.01275	2.930412600928306	0.835082500446101	0.0702	3.102352514370903	0.8316820152758961	0.1076	2.959335131082961	1.1156214491350223	-0.01275	2.874453783725243	0.8910792621931296	0.0702	3.0521658322613026	0.8024587919482492	0.1076
26	0.8764044943820224	2.619728223414362	0.7578463090544856	0.0301	2.598114215233651	0.781245119173416	0.0301	2.5897520538888807	0.40154030507046107	0.129	2.276586999529159	0.1287666610913524	0.023	2.4080811780591587	0.005261079882388953	0.2179	2.354815249254969	0.016758739833578177	0.1804	2.2078326400186032	0.11320996993742843	-0.0119	2.6664287511279468	0.7455232235612691	0.0301	2.6679096274735437	0.38586121623999625	0.129	2.409821439402032	0.130762381031798	0.023	2.5406250620845934	0.003182437992749095	0.2179	2.5286127480258966	0.030665434752497795	0.1804	2.3430723633075146	0.10728328962745863	-0.0119	3.010775087700014	1.162765501760958	0.0008	3.156980821054959	1.3685149602476645	0.0655	3.1859993661049675	1.2396058071929306	0.1076	2.9712718294503304	1.0977356617263496	-0.01275	2.945462925945383	0.8368937112021909	0.0702	3.1177251858862265	0.8416219235086295	0.1076	2.9604476159241493	1.116177577055973	-0.01275	2.8911254515329983	0.883575453754263	0.0702	3.0686182977913816	0.8029348414239181	0.1076
27	0.9101123595505618	2.6250882099816786	0.7546141424263557	0.0301	2.602571476059718	0.7800090120256058	0.0301	2.5931114385098204	0.4002283042156364	0.129	2.2762409546215734	0.1280936730710586	0.023	2.4060510635382193	0.006691210182802259	0.2179	2.3520433301363703	0.016616528545691355	0.1804	2.207571106754694	0.11326923537637465	-0.0119	2.6713708216544974	0.7435426621177555	0.0301	2.67073121186209	0.38471440927731865	0.129	2.4108510948819415	0.13060540081528696	0.023	2.5404639408196656	0.004914380579419425	0.2179	2.5293961195661505	0.031848576480580336	0.1804	2.3425352072766437	0.10763532196979789	-0.0119	3.0099588730878115	1.1658585718277155	0.0008	3.1548103175101923	1.3738096390427037	0.0655	3.183839785970995	1.2421487915782712	0.1076	2.9743053466999463	1.1025880875611473	-0.01275	2.9635347490723594	0.8415390372456086	0.0702	3.1344980196452195	0.8506853592285832	0.1076	2.9623216746784427	1.1153746514213456	-0.01275	2.9149527260000627	0.8663238031936829	0.0702	3.086583021472337	0.7941986663372478	0.1076
28	0.9438202247191011	2.6312770496123026	0.7502736569275628	0.0301	2.606599021272047	0.77700296493391	0.0301	2.596378229659482	0.39843200724853417	0.129	2.2758264558759764	0.1278985543005931	0.023	2.4029689933513647	0.006436655772537041	0.2179	2.349926265048056	0.015994396039432066	0.1804	2.2057702955785605	0.1127461178835635	-0.0119	2.678378868493756	0.7385656390753573	0.0301	2.675212398623077	0.38182971231139307	0.129	2.4120167309821277	0.1301284346084374	0.023	2.539618857377558	0.006729985201968117	0.2179	2.527779720263542	0.03432781194187715	0.1804	2.3407111312696047	0.10802480355591729	-0.0119	3.0100192034020075	1.1686237425640549	0.0008	3.150974765852084	1.3797329206849558	0.0655	3.181009168469255	1.2456761437908592	0.1076	2.9765251989185804	1.1106217482713652	-0.01275	2.9827970993827857	0.8453494081415003	0.0702	3.1529900677043896	0.860489868478752	0.1076	2.9678597482046793	1.1129947236691964	-0.01275	2.9456565252450715	0.845013623566605	0.0702	3.10928496959443	0.7894637365754475	0.1076
29	0.9775280898876404	2.636832456019523	0.7470014960967692	0.0301	2.6099482401216085	0.7737462639687007	0.0301	2.599692351821392	0.39549769282101943	0.129	2.2758308000461533	0.12815400255936588	0.023	2.398001367272577	0.004482099224991192	0.2179	2.3479870802155087	0.014290182468516663	0.1804	2.202671090969625	0.11248712889552157	-0.0119	2.685545960191627	0.7329255684390875	0.0301	2.680159359164063	0.3768042833000396	0.129	2.412316233243786	0.13001746517315688	0.023	2.538927439761108	0.007587045074553286	0.2179	2.52605221316354	0.03581773307516467	0.1804	2.3388982340289077	0.10718432027494944	-0.0119	3.0115763502430526	1.1717805692249839	0.0008	3.1424554018602757	1.386958889884656	0.0655	3.17781888407867	1.24906996488036	0.1076	2.976963425710268	1.118195224476718	-0.01275	3.003579674427173	0.8467062542973305	0.0702	3.1730545853861827	0.8739503733875944	0.1076	2.9761466920299777	1.1106369743918734	-0.01275	2.9805852855664487	0.8299924482264393	0.0702	3.140843069279845	0.8015395725905213	0.1076
30	1.0112359550561798	2.6422735862027067	0.7443067909412872	0.0301	2.6153947482754427	0.7695890432351474	0.0301	2.6073281205675647	0.3904060298798689	0.129	2.277628952055069	0.1290192824551362	0.023	2.395428654128564	0.0031456542981961257	0.2179	2.348293723704804	0.011476242631718744	0.1804	2.200409367831865	0.11143380398846912	-0.0119	2.691940194220152	0.7285112484173376	0.0301	2.685910622310447	0.3707619253606512	0.129	2.4133707604056585	0.1308267751498532	0.023	2.539024118981166	0.007084818373254752	0.2179	2.5254485407687244	0.03527138038942767	0.1804	2.338601813358853	0.10607942325071174	-0.0119	3.0127413391909443	1.175542088505152	0.0008	3.131305329384804	1.3939213012425828	0.0655	3.173875991097885	1.2515308001569032	0.1076	2.9775148022414384	1.122748260232182	-0.01275	3.03021684176491	0.8497194044093047	0.0702	3.1969984061547487	0.8964809391082034	0.1076	2.9828691931508424	1.1103958956910003	-0.01275	3.0172423787887674	0.8271236925528391	0.0702	3.181980293007467	0.8310162746161985	0.1076
31	1.044943820224719	2.6485439364920422	0.7408271544046521	0.0301	2.624288645155527	0.7637667144548144	0.0301	2.6224967768924166	0.3825088116532773	0.129	2.2824163410515954	0.13086731038670832	0.023	2.398929532037276	0.003883789694644867	0.2179	2.35212462731494	0.009499779319507127	0.1804	2.201160826897339	0.1091795312778714	-0.0119	2.697484326945444	0.7254353120941324	0.0301	2.6923703312451956	0.36453502422594247	0.129	2.4165717066856893	0.1328314036094135	0.023	2.5396469520006626	0.005735238714479006	0.2179	2.5246709444446136	0.03400240502361019	0.1804	2.33904832341894	0.10691091630968093	-0.0119	3.011210650738781	1.178414434733602	0.0008	3.1205742477814407	1.3994239346096753	0.0655	3.168713460332028	1.2534256575762317	0.1076	2.9797396468897435	1.1240845387133895	-0.01275	3.065709927930528	0.8592448454676856	0.0702	3.2282520442394964	0.9295636607293996	0.1076	2.986392530605125	1.1120602738232228	-0.01275	3.0553158498265724	0.8382439221833171	0.0702	3.22591913615858	0.8753239565757498	0.1076
32	1.0786516853932584	2.655084449765476	0.7359569062246112	0.0301	2.6341939591307253	0.7565784944701027	0.0301	2.643339353615821	0.3715639852752175	0.129	2.289399427521131	0.13365705081168772	0.023	2.404371898455154	0.004624815369869442	0.2179	2.3570323252445515	0.010329330945785895	0.1804	2.204923518592124	0.1104879282307206	-0.0119	2.701475611183449	0.7222616876518327	0.0301	2.6971918193795537	0.35820107451533406	0.129	2.4206623251294017	0.13482224065148501	0.023	2.539974458938175	0.004933268373827504	0.2179	2.5235186925374715	0.03394071383991765	0.1804	2.3385422871243167	0.10973639203311468	-0.0119	3.006806747071662	1.1793195933067195	0.0008	3.110233049189744	1.4040220878970415	0.0655	3.162358975118902	1.2552811938198376	0.1076	2.9832125530434177	1.1233356035984179	-0.01275	3.107798052534308	0.8756475287343936	0.0702	3.265843797245271	0.9671436942970917	0.1076	2.987045452704578	1.115046727840119	-0.01275	3.0958007194191683	0.8620418920104475	0.0702	3.261835597985865	0.9324420264493477	0.1076
33	1.1123595505617978	2.6613986192994616	0.7290547403974522	0.0301	2.642662462435965	0.7475371041252505	0.0301	2.666715266946466	0.35773778226862163	0.129	2.2969601544597467	0.13673962036678197	0.023	2.40673816428327	0.002694964288959302	0.2179	2.359889712696393	0.013325290583835423	0.1804	2.210859704761038	0.11865208100339056	-0.0119	2.7039430845875447	0.7165543226913124	0.0301	2.697248176951768	0.3519764071583735	0.129	2.4237483153817903	0.1350015173958678	0.023	2.540175323504971	0.005426489269927212	0.2179	2.52414212582545	0.035076602025246685	0.1804	2.3375689931125274	0.11218901452665901	-0.0119	3.001235207439614	1.1782329764721788	0.0008	3.0987948314409057	1.4067236989230998	0.0655	3.155682385119938	1.256036504050555	0.1076	2.9852381524694964	1.1234995574032214	-0.01275	3.14909843818805	0.8991686575233783	0.0702	3.2980117721515105	1.0080795235173994	0.1076	2.9848686082370373	1.1185671387096117	-0.01275	3.13832862423784	0.8901501362466745	0.0702	3.2890163309607563	0.991849548147497	0.1076
34	1.146067415730337	2.6677015696054314	0.7187445312830644	0.0301	2.649470145706226	0.7348288276675686	0.0301	2.690109135100941	0.34167583842581695	0.129	2.30457529409684	0.13904253588192536	0.023	2.4085589411331947	-0.0009572895301504234	0.2179	2.3607052789213268	0.01625131003676571	0.1804	2.218385072684101	0.127576668948894	-0.0119	2.706706026450401	0.7061367780261317	0.0301	2.6929335895534394	0.3453509515593178	0.129	2.4254976842013103	0.13331634344884133	0.023	2.540895874083598	0.005701155919670011	0.2179	2.5273393154249746	0.03567730011028066	0.1804	2.3381635400932677	0.11236504373575858	-0.0119	2.9958437583263366	1.1741568411332186	0.0008	3.0858916928610634	1.404652854512857	0.0655	3.1492190048873487	1.2536275062104665	0.1076	2.9821398435300197	1.1265621519018854	-0.01275	3.180345236119988	0.9327993152659265	0.0702	3.3091474245081356	1.0596480423817005	0.1076	2.9837581792816747	1.1175880505456048	-0.01275	3.1780590197359584	0.9149219470085268	0.0702	3.31203628408113	1.0409134201745043	0.1076
35	1.1797752808988764	2.6736388100302877	0.7042694856393832	0.0301	2.6543428808958405	0.7179979247116716	0.0301	2.710324949787819	0.32476998052140715	0.129	2.312310656792267	0.13987188788485064	0.023	2.4138151082832584	-0.0035115243370789986	0.2179	2.362724937526625	0.01762834189070827	0.1804	2.2264033523136986	0.13030349882475106	-0.0119	2.711034569305845	0.6907699437965182	0.0301	2.6914125823065307	0.3360255472401347	0.129	2.426615727862829	0.13071044650105165	0.023	2.541334146077814	0.004560096531337602	0.2179	2.5307135862410424	0.03510440934843583	0.1804	2.3410742689088164	0.11016799799489439	-0.0119	2.99029106616702	1.165673317920532	0.0008	3.072361449163333	1.3969059497460126	0.0655	3.140738213578555	1.2465040700010592	0.1076	2.9740195530406717	1.129031157215847	-0.01275	3.197896186717917	0.973915152314098	0.0702	3.298235115707924	1.1176221094125165	0.1076	2.9869315128852114	1.10866132415826	-0.01275	3.2081641047445633	0.939175873092593	0.0702	3.324308498214545	1.0814684368316645	0.1076
